<?xml version="1.0" encoding="UTF-8"?>
<svg xmlns="http://www.w3.org/2000/svg" xmlns:xlink="http://www.w3.org/1999/xlink" width="170px" height="51px" viewBox="0 0 170 51" version="1.1">
<g id="surface1">
<path style=" stroke:none;fill-rule:nonzero;fill:rgb(100%,100%,100%);fill-opacity:1;" d="M 63.242188 16.019531 L 60.847656 11.761719 C 60.429688 11.039062 60.070312 10.261719 59.769531 9.421875 L 59.648438 9.421875 C 59.769531 10.261719 59.828125 11.039062 59.828125 11.878906 L 59.828125 19.378906 L 57.316406 19.378906 L 57.316406 5.398438 L 60.070312 5.398438 L 63.179688 11.28125 C 63.480469 11.878906 63.78125 12.480469 63.960938 13.078125 L 64.078125 13.078125 C 64.257812 12.480469 64.558594 11.878906 64.855469 11.28125 L 67.910156 5.398438 L 70.605469 5.398438 L 70.605469 19.320312 L 68.089844 19.320312 L 68.089844 11.820312 C 68.089844 10.980469 68.089844 10.199219 68.210938 9.359375 L 68.089844 9.359375 C 67.851562 10.140625 67.492188 10.921875 67.070312 11.699219 L 64.679688 16.019531 Z M 81.738281 15.839844 L 76.171875 15.839844 L 74.914062 19.320312 L 72.339844 19.320312 L 77.367188 5.398438 L 80.601562 5.398438 L 85.628906 19.320312 L 82.933594 19.320312 Z M 76.890625 13.738281 L 80.960938 13.738281 L 80.0625 11.160156 C 79.644531 9.960938 79.222656 8.699219 78.984375 7.378906 L 78.925781 7.378906 C 78.625 8.640625 78.265625 9.898438 77.847656 11.101562 Z M 98.199219 16.621094 C 96.941406 18.660156 95.386719 19.621094 92.453125 19.621094 C 88.800781 19.621094 86.285156 17.039062 86.285156 12.359375 C 86.285156 7.679688 88.859375 5.101562 92.871094 5.101562 C 95.207031 4.921875 97.421875 6.300781 98.257812 8.519531 L 95.863281 9.71875 C 95.503906 8.28125 94.25 7.261719 92.75 7.320312 C 90.355469 7.320312 88.921875 9.238281 88.921875 12.421875 C 88.921875 15.601562 90.179688 17.398438 92.75 17.398438 C 94.25 17.460938 95.566406 16.621094 96.222656 15.300781 Z M 109.871094 22.980469 C 106.640625 23.039062 104.964844 21.539062 104.246094 19.5 C 101.191406 18.960938 99.335938 16.441406 99.335938 12.421875 C 99.335938 7.738281 101.789062 5.160156 105.742188 5.160156 C 109.691406 5.160156 112.144531 7.738281 112.144531 12.421875 C 112.144531 16.621094 110.171875 19.140625 106.878906 19.621094 C 107.894531 20.578125 109.273438 21 110.710938 20.820312 Z M 101.96875 12.421875 C 101.96875 15.539062 103.226562 17.460938 105.679688 17.460938 C 108.136719 17.460938 109.453125 15.539062 109.453125 12.421875 C 109.453125 9.300781 108.195312 7.378906 105.679688 7.378906 C 103.226562 7.320312 101.96875 9.238281 101.96875 12.421875 Z M 125.136719 5.398438 L 125.136719 14.761719 C 125.136719 18.421875 122.5 19.621094 119.628906 19.621094 C 116.753906 19.621094 114.179688 18.421875 114.179688 14.761719 L 114.179688 5.398438 L 116.695312 5.398438 L 116.695312 14.039062 C 116.695312 16.378906 117.652344 17.519531 119.628906 17.519531 C 121.664062 17.519531 122.621094 16.378906 122.621094 14.039062 L 122.621094 5.398438 Z M 135.550781 15.839844 L 129.984375 15.839844 L 128.726562 19.320312 L 126.09375 19.320312 L 131.179688 5.398438 L 134.414062 5.398438 L 139.441406 19.320312 L 136.75 19.320312 Z M 130.703125 13.738281 L 134.773438 13.738281 L 133.875 11.160156 C 133.457031 9.960938 133.035156 8.699219 132.796875 7.378906 L 132.679688 7.378906 C 132.378906 8.640625 132.019531 9.898438 131.601562 11.101562 Z M 148.960938 19.320312 C 148.601562 18.960938 148.359375 18.480469 148.300781 17.941406 L 147.761719 15.660156 C 147.402344 14.160156 146.625 13.859375 145.367188 13.859375 L 143.691406 13.859375 L 143.691406 19.261719 L 141.179688 19.261719 L 141.179688 5.398438 L 146.207031 5.398438 C 149.378906 5.398438 151.054688 6.660156 151.054688 9.480469 C 151.175781 11.28125 149.855469 12.839844 148.0625 12.960938 L 147.882812 12.960938 L 147.882812 13.019531 C 149.078125 13.078125 150.097656 13.980469 150.277344 15.179688 L 150.996094 17.878906 C 151.113281 18.421875 151.355469 18.898438 151.714844 19.378906 Z M 143.691406 11.820312 L 146.085938 11.820312 C 147.703125 11.820312 148.480469 11.160156 148.480469 9.660156 C 148.480469 8.28125 147.703125 7.5 146.085938 7.5 L 143.691406 7.5 Z M 156.441406 5.398438 L 156.441406 19.320312 L 153.929688 19.320312 L 153.929688 5.398438 Z M 168.652344 19.320312 L 159.792969 19.320312 L 159.792969 5.398438 L 168.652344 5.398438 L 168.652344 7.621094 L 162.367188 7.621094 L 162.367188 11.28125 L 167.933594 11.28125 L 167.933594 13.441406 L 162.367188 13.441406 L 162.367188 17.160156 L 168.652344 17.160156 Z M 168.652344 19.320312 "/>
<path style=" stroke:none;fill-rule:nonzero;fill:rgb(83.921569%,0%,10.980392%);fill-opacity:1;" d="M 26.070312 28.261719 L 30.078125 30.601562 L 30.378906 30.601562 L 30.320312 30.71875 L 43.964844 38.640625 L 43.964844 13.320312 L 26.070312 23.699219 Z M 26.070312 28.261719 "/>
<path style=" stroke:none;fill-rule:nonzero;fill:rgb(46.27451%,13.72549%,18.431373%);fill-opacity:1;" d="M 14.15625 30.601562 L 18.226562 28.261719 L 18.226562 23.699219 L 0.269531 13.320312 L 0.269531 38.640625 L 13.917969 30.71875 L 13.917969 30.601562 Z M 14.15625 30.601562 "/>
<path style=" stroke:none;fill-rule:nonzero;fill:rgb(83.921569%,0%,10.980392%);fill-opacity:1;" d="M 22.117188 0.660156 L 43.964844 13.320312 L 43.964844 0.660156 Z M 22.117188 0.660156 "/>
<path style=" stroke:none;fill-rule:nonzero;fill:rgb(46.27451%,13.72549%,18.431373%);fill-opacity:1;" d="M 0.269531 0.660156 L 0.269531 13.320312 L 22.117188 0.660156 Z M 31.097656 34.140625 L 31.097656 35.699219 L 30.378906 35.699219 C 29.601562 36.179688 29.121094 36.960938 29 37.859375 L 28.222656 37.859375 L 28.285156 39.601562 L 28.703125 47.460938 L 43.90625 38.640625 L 30.320312 30.71875 L 29.539062 34.078125 Z M 30.078125 30.601562 L 26.070312 28.261719 L 26.070312 30.601562 Z M 30.078125 30.601562 "/>
<path style=" stroke:none;fill-rule:nonzero;fill:rgb(83.921569%,0%,10.980392%);fill-opacity:1;" d="M 14.695312 34.140625 L 13.917969 30.71875 L 0.269531 38.640625 L 15.472656 47.398438 L 16.011719 37.800781 L 15.292969 37.800781 C 15.175781 36.898438 14.695312 36.121094 13.917969 35.640625 L 13.199219 35.640625 L 13.199219 34.140625 Z M 18.226562 28.261719 L 14.15625 30.601562 L 18.226562 30.601562 Z M 18.226562 28.261719 "/>
<path style=" stroke:none;fill-rule:nonzero;fill:rgb(100%,100%,100%);fill-opacity:1;" d="M 22.65625 16.261719 C 22.777344 16.261719 22.835938 16.261719 22.957031 16.199219 C 23.375 15.78125 23.433594 15.058594 22.957031 14.578125 C 22.714844 14.339844 22.417969 14.21875 22.117188 14.21875 C 22 14.21875 21.9375 14.21875 21.820312 14.28125 C 21.398438 14.699219 21.339844 15.421875 21.820312 15.898438 C 22 16.140625 22.296875 16.261719 22.65625 16.261719 Z M 23.914062 38.21875 C 20.742188 38.28125 19.84375 40.199219 19.84375 40.199219 L 19.664062 40.621094 L 19.363281 49.738281 L 22.117188 51.359375 L 28.761719 47.519531 L 28.34375 39.601562 C 28.285156 39.480469 27.503906 38.160156 23.914062 38.21875 Z M 23.914062 38.21875 "/>
<path style=" stroke:none;fill-rule:nonzero;fill:rgb(70.196078%,70.196078%,70.196078%);fill-opacity:1;" d="M 13.140625 34.140625 L 13.140625 35.699219 L 13.917969 35.699219 C 14.695312 36.179688 15.175781 36.960938 15.292969 37.859375 L 16.070312 37.859375 L 15.535156 47.460938 L 19.363281 49.679688 L 19.664062 40.558594 L 19.84375 40.140625 C 19.84375 40.140625 20.679688 38.160156 23.855469 38.160156 C 27.445312 38.101562 28.222656 39.421875 28.285156 39.539062 L 28.222656 37.800781 L 29 37.800781 C 29.121094 36.898438 29.601562 36.121094 30.378906 35.640625 L 31.097656 35.640625 L 31.097656 34.078125 L 13.140625 34.078125 Z M 13.140625 34.140625 "/>
<path style=" stroke:none;fill-rule:nonzero;fill:rgb(70.196078%,70.196078%,70.196078%);fill-opacity:1;" d="M 22.894531 44.578125 C 22.957031 44.160156 22.65625 43.800781 22.238281 43.738281 C 21.820312 43.679688 21.460938 43.980469 21.398438 44.398438 L 21.398438 46.558594 L 22.894531 46.558594 Z M 22.894531 44.578125 "/>
<path style=" stroke:none;fill-rule:nonzero;fill:rgb(46.27451%,13.72549%,18.431373%);fill-opacity:1;" d="M 19.246094 22.320312 L 19.246094 23.460938 L 22.117188 25.140625 L 24.992188 23.460938 L 24.992188 22.320312 Z M 22.117188 26.820312 L 19.246094 28.5 L 19.246094 29.640625 L 24.992188 29.640625 L 24.992188 28.5 Z M 26.070312 21.421875 L 26.367188 21.421875 C 26.605469 21.421875 26.847656 21.601562 26.847656 21.898438 C 26.847656 22.140625 26.667969 22.378906 26.367188 22.378906 L 26.070312 22.378906 L 26.070312 23.761719 L 44.027344 13.378906 L 22.117188 0.660156 L 22.117188 14.21875 C 22.714844 14.21875 23.253906 14.761719 23.253906 15.359375 L 23.253906 15.421875 C 23.253906 15.71875 23.136719 16.019531 22.957031 16.199219 C 22.777344 16.378906 22.65625 16.621094 22.65625 16.859375 C 22.65625 17.160156 22.777344 17.398438 23.015625 17.578125 C 24.8125 18 26.070312 19.621094 26.070312 21.421875 Z M 26.070312 21.421875 "/>
<path style=" stroke:none;fill-rule:nonzero;fill:rgb(70.196078%,70.196078%,70.196078%);fill-opacity:1;" d="M 22.117188 29.640625 L 19.246094 29.640625 L 19.246094 28.5 L 22.117188 26.820312 L 22.117188 25.078125 L 19.246094 23.398438 L 19.246094 22.261719 L 20.5 22.261719 C 20.441406 22.261719 20.320312 22.019531 20.320312 21.78125 C 20.320312 21.539062 20.382812 21.300781 20.5 21.300781 L 20.621094 21.300781 C 20.621094 19.140625 21.28125 17.398438 22.117188 17.398438 C 22.417969 17.398438 22.714844 17.460938 23.015625 17.519531 C 22.777344 17.339844 22.65625 17.101562 22.65625 16.800781 C 22.65625 16.558594 22.777344 16.320312 22.894531 16.199219 C 22.777344 16.199219 22.714844 16.261719 22.597656 16.261719 C 22 16.261719 21.460938 15.78125 21.460938 15.121094 C 21.460938 14.820312 21.578125 14.519531 21.820312 14.28125 C 21.21875 14.460938 20.859375 15.058594 21.039062 15.660156 C 21.101562 15.839844 21.160156 16.019531 21.339844 16.140625 C 21.519531 16.320312 21.640625 16.558594 21.640625 16.800781 C 21.640625 17.101562 21.519531 17.339844 21.28125 17.519531 C 19.484375 17.941406 18.226562 19.558594 18.226562 21.359375 L 17.929688 21.359375 C 17.6875 21.359375 17.449219 21.539062 17.449219 21.839844 C 17.449219 22.078125 17.628906 22.320312 17.929688 22.320312 L 18.226562 22.320312 L 18.226562 30.601562 L 22.117188 30.601562 Z M 22.117188 29.640625 "/>
<path style=" stroke:none;fill-rule:nonzero;fill:rgb(100%,100%,100%);fill-opacity:1;" d="M 22.117188 25.078125 L 22.117188 26.820312 L 24.992188 28.5 L 24.992188 29.640625 L 22.117188 29.640625 L 22.117188 30.601562 L 13.917969 30.601562 L 14.695312 34.140625 L 29.539062 34.140625 L 30.320312 30.601562 L 26.007812 30.601562 L 26.007812 22.320312 L 26.308594 22.320312 C 26.546875 22.320312 26.785156 22.078125 26.785156 21.839844 C 26.785156 21.601562 26.546875 21.421875 26.308594 21.421875 L 26.007812 21.421875 C 26.070312 19.261719 24.332031 17.460938 22.179688 17.398438 L 22.117188 17.398438 C 21.339844 17.398438 20.621094 19.140625 20.621094 21.300781 L 20.5 21.300781 C 20.382812 21.300781 20.320312 21.480469 20.320312 21.78125 C 20.320312 22.019531 20.382812 22.199219 20.5 22.261719 L 24.992188 22.261719 L 24.992188 23.398438 Z M 22.117188 25.078125 "/>
<path style=" stroke:none;fill-rule:nonzero;fill:rgb(46.27451%,13.72549%,18.431373%);fill-opacity:1;" d="M 19.246094 24.898438 L 21.101562 25.980469 L 19.246094 27.058594 Z M 19.246094 24.898438 "/>
<path style=" stroke:none;fill-rule:nonzero;fill:rgb(83.921569%,0%,10.980392%);fill-opacity:1;" d="M 24.992188 24.898438 L 23.136719 25.980469 L 24.992188 27.058594 Z M 24.992188 24.898438 "/>
<path style=" stroke:none;fill-rule:nonzero;fill:rgb(100%,100%,100%);fill-opacity:1;" d="M 30.257812 14.398438 L 28.582031 15.960938 L 28.761719 13.679688 L 26.488281 13.320312 L 28.402344 12.058594 L 27.265625 10.078125 L 29.421875 10.738281 L 30.257812 8.578125 L 31.097656 10.738281 L 33.25 10.078125 L 32.113281 12.058594 L 34.03125 13.320312 L 31.753906 13.679688 L 31.933594 15.960938 Z M 30.257812 14.398438 "/>
<path style=" stroke:none;fill-rule:nonzero;fill:rgb(83.921569%,0%,10.980392%);fill-opacity:1;" d="M 17.929688 22.320312 C 17.6875 22.320312 17.449219 22.078125 17.449219 21.839844 C 17.449219 21.601562 17.628906 21.359375 17.929688 21.359375 L 18.226562 21.359375 C 18.226562 19.558594 19.484375 17.941406 21.28125 17.519531 C 21.519531 17.339844 21.640625 17.101562 21.640625 16.800781 C 21.640625 16.558594 21.519531 16.320312 21.339844 16.140625 C 20.921875 15.71875 20.921875 15 21.339844 14.578125 C 21.460938 14.460938 21.640625 14.339844 21.820312 14.28125 C 21.9375 14.28125 22 14.21875 22.117188 14.21875 L 22.117188 0.660156 L 0.269531 13.320312 L 18.226562 23.699219 L 18.226562 22.320312 Z M 17.929688 22.320312 "/>
<path style=" stroke:none;fill-rule:nonzero;fill:rgb(70.196078%,70.196078%,70.196078%);fill-opacity:1;" d="M 18.644531 33.421875 L 19.785156 33.421875 L 19.605469 31.320312 L 18.347656 31.320312 Z M 20.5625 33.421875 L 22.058594 33.421875 L 22.058594 31.320312 L 20.382812 31.320312 Z M 20.5625 33.421875 "/>
<path style=" stroke:none;fill-rule:nonzero;fill:rgb(83.921569%,0%,10.980392%);fill-opacity:1;" d="M 16.851562 33.421875 L 17.929688 33.421875 L 17.628906 31.320312 L 16.429688 31.320312 Z M 15.292969 33.421875 L 16.070312 33.421875 L 15.652344 31.320312 L 14.753906 31.320312 Z M 15.292969 33.421875 "/>
<path style=" stroke:none;fill-rule:nonzero;fill:rgb(46.27451%,13.72549%,18.431373%);fill-opacity:1;" d="M 26.367188 33.421875 L 27.445312 33.421875 L 27.863281 31.320312 L 26.667969 31.320312 Z M 28.222656 33.421875 L 29 33.421875 L 29.480469 31.320312 L 28.644531 31.320312 Z M 28.222656 33.421875 "/>
<path style=" stroke:none;fill-rule:nonzero;fill:rgb(100%,100%,100%);fill-opacity:1;" d="M 63.601562 24.179688 L 64.855469 24.179688 L 64.855469 31.140625 C 64.855469 32.761719 64.617188 33.898438 64.078125 34.378906 C 63.539062 34.921875 62.761719 35.21875 61.984375 35.160156 C 61.144531 35.21875 60.367188 34.859375 59.828125 34.261719 C 59.53125 33.898438 59.289062 33.480469 59.230469 33.058594 C 59.109375 32.28125 59.050781 31.5 59.050781 30.71875 L 59.050781 24.121094 L 60.1875 24.121094 L 60.1875 23.339844 L 56.058594 23.339844 L 56.058594 24.121094 L 57.316406 24.121094 L 57.316406 31.078125 C 57.195312 32.398438 57.613281 33.78125 58.394531 34.800781 C 59.289062 35.640625 60.546875 36.121094 61.804688 36 C 63.0625 36.121094 64.320312 35.578125 65.15625 34.679688 C 65.515625 34.261719 65.816406 33.71875 65.933594 33.179688 C 66.054688 32.339844 66.113281 31.5 66.113281 30.660156 L 66.113281 24.179688 L 67.371094 24.179688 L 67.371094 23.398438 L 63.601562 23.398438 Z M 76.828125 29.339844 C 76.890625 28.558594 76.648438 27.839844 76.171875 27.238281 C 75.691406 26.699219 75.035156 26.398438 74.316406 26.460938 C 73.65625 26.460938 73.058594 26.640625 72.460938 26.941406 C 71.859375 27.300781 71.382812 27.78125 71.023438 28.378906 L 71.023438 26.640625 L 68.089844 26.640625 L 68.089844 27.421875 L 69.347656 27.421875 L 69.347656 34.921875 L 68.089844 34.921875 L 68.089844 35.699219 L 72.21875 35.699219 L 72.21875 34.921875 L 71.023438 34.921875 L 71.023438 29.101562 C 71.382812 28.679688 71.859375 28.320312 72.339844 28.019531 C 72.757812 27.78125 73.238281 27.660156 73.714844 27.660156 C 74.136719 27.601562 74.554688 27.78125 74.855469 28.078125 C 75.09375 28.558594 75.214844 29.039062 75.152344 29.578125 L 75.152344 34.921875 L 73.894531 34.921875 L 73.894531 35.699219 L 78.027344 35.699219 L 78.027344 34.921875 L 76.769531 34.921875 L 76.769531 29.339844 Z M 81.976562 26.640625 L 79.105469 26.640625 L 79.105469 27.480469 L 80.300781 27.480469 L 80.300781 34.921875 L 79.105469 34.921875 L 79.105469 35.761719 L 83.234375 35.761719 L 83.234375 34.921875 L 81.976562 34.921875 Z M 80.300781 23.339844 L 81.976562 23.339844 L 81.976562 25.019531 L 80.300781 25.019531 Z M 90 27.480469 L 91.253906 27.480469 L 88.441406 33.71875 L 85.867188 27.480469 L 87.125 27.480469 L 87.125 26.640625 L 83.355469 26.640625 L 83.355469 27.480469 L 84.070312 27.480469 L 87.605469 35.878906 L 88.382812 35.878906 L 92.152344 27.480469 L 92.871094 27.480469 L 92.871094 26.640625 L 90 26.640625 Z M 96.882812 26.460938 C 95.746094 26.460938 94.726562 26.941406 94.007812 27.78125 C 93.230469 28.738281 92.8125 29.941406 92.871094 31.140625 C 92.8125 32.398438 93.289062 33.660156 94.128906 34.621094 C 94.964844 35.519531 96.164062 36 97.359375 36 C 98.378906 36 99.335938 35.761719 100.234375 35.398438 L 100.234375 34.140625 C 99.457031 34.621094 98.5 34.859375 97.601562 34.859375 C 96.761719 34.921875 95.925781 34.5 95.445312 33.839844 C 94.847656 33 94.605469 32.039062 94.667969 31.019531 L 100.292969 31.019531 L 100.292969 30.71875 C 100.355469 29.578125 100.054688 28.5 99.394531 27.601562 C 98.738281 26.820312 97.839844 26.398438 96.882812 26.460938 Z M 98.5 30.179688 L 94.726562 30.179688 C 94.726562 29.398438 94.964844 28.679688 95.324219 28.019531 C 95.625 27.539062 96.222656 27.300781 96.761719 27.300781 C 97.898438 27.300781 98.5 28.199219 98.5 30 Z M 104.785156 28.378906 L 104.785156 26.640625 L 101.910156 26.640625 L 101.910156 27.421875 L 103.167969 27.421875 L 103.167969 34.921875 L 101.910156 34.921875 L 101.910156 35.699219 L 106.039062 35.699219 L 106.039062 34.921875 L 104.785156 34.921875 L 104.785156 29.101562 C 105.320312 28.378906 106.101562 27.960938 107 27.839844 L 107.296875 27.839844 L 107.296875 28.800781 L 108.316406 28.800781 L 108.316406 26.519531 C 108.136719 26.460938 107.957031 26.398438 107.777344 26.398438 C 106.460938 26.460938 105.320312 27.238281 104.785156 28.378906 Z M 113.703125 30.71875 L 112.925781 30.421875 C 112.386719 30.238281 111.847656 29.941406 111.367188 29.640625 C 111.128906 29.398438 110.949219 29.101562 110.949219 28.738281 C 110.949219 28.378906 111.128906 28.019531 111.367188 27.71875 C 111.667969 27.480469 112.085938 27.300781 112.445312 27.300781 C 112.746094 27.300781 113.042969 27.359375 113.34375 27.480469 C 113.644531 27.601562 113.941406 27.78125 114.242188 27.960938 L 114.242188 28.980469 L 115.257812 28.980469 L 115.257812 27 C 114.78125 26.820312 114.359375 26.699219 113.882812 26.578125 C 113.402344 26.519531 112.984375 26.460938 112.503906 26.460938 C 111.667969 26.460938 110.890625 26.699219 110.289062 27.179688 C 109.75 27.601562 109.394531 28.320312 109.394531 29.039062 C 109.394531 30.238281 110.289062 31.140625 111.964844 31.859375 L 112.804688 32.160156 C 113.761719 32.519531 114.242188 33.058594 114.242188 33.71875 C 114.242188 34.140625 114.0625 34.558594 113.761719 34.800781 C 113.402344 35.101562 112.925781 35.21875 112.445312 35.21875 C 112.085938 35.21875 111.726562 35.160156 111.429688 34.980469 C 111.007812 34.800781 110.648438 34.621094 110.351562 34.378906 L 110.351562 33.359375 L 109.332031 33.359375 L 109.332031 35.398438 C 109.8125 35.640625 110.289062 35.820312 110.828125 35.878906 C 111.367188 36 111.90625 36.058594 112.445312 36.058594 C 113.34375 36.121094 114.242188 35.820312 114.960938 35.28125 C 115.558594 34.800781 115.976562 34.078125 115.917969 33.300781 C 115.917969 32.761719 115.738281 32.28125 115.4375 31.859375 C 114.960938 31.261719 114.359375 30.898438 113.703125 30.71875 Z M 118.429688 23.339844 L 120.105469 23.339844 L 120.105469 25.019531 L 118.429688 25.019531 Z M 120.105469 26.640625 L 117.234375 26.640625 L 117.234375 27.480469 L 118.429688 27.480469 L 118.429688 34.921875 L 117.234375 34.921875 L 117.234375 35.761719 L 121.363281 35.761719 L 121.363281 34.921875 L 120.105469 34.921875 Z M 128.367188 33.71875 L 127.46875 33.71875 C 127.46875 34.261719 127.171875 34.738281 126.691406 34.980469 C 126.570312 35.039062 126.453125 35.039062 126.273438 35.039062 C 125.914062 35.039062 125.613281 34.859375 125.496094 34.558594 C 125.316406 34.140625 125.195312 33.601562 125.253906 33.121094 L 125.253906 27.421875 L 127.589844 27.421875 L 127.589844 26.640625 L 125.253906 26.640625 L 125.253906 24.601562 L 123.578125 25.019531 L 123.578125 26.699219 L 122.261719 26.699219 L 122.261719 27.480469 L 123.519531 27.480469 L 123.519531 32.941406 C 123.460938 33.78125 123.699219 34.621094 124.179688 35.28125 C 124.65625 35.820312 125.375 36.058594 126.09375 36 C 126.214844 36 126.332031 36 126.511719 35.941406 L 126.691406 35.941406 L 126.871094 35.878906 L 126.992188 35.878906 L 127.109375 35.820312 L 127.171875 35.820312 C 127.949219 35.460938 128.429688 34.621094 128.367188 33.71875 Z M 128.367188 33.71875 "/>
<path style=" stroke:none;fill-rule:nonzero;fill:rgb(100%,100%,100%);fill-opacity:1;" d="M 135.132812 26.699219 L 135.132812 27.480469 L 136.390625 27.480469 L 133.636719 33.71875 L 131.0625 27.539062 L 132.320312 27.539062 L 132.320312 26.761719 L 128.546875 26.761719 L 128.546875 27.539062 L 129.265625 27.539062 L 132.738281 35.941406 C 132.617188 36.238281 132.4375 36.539062 132.257812 36.839844 C 132.019531 37.378906 131.601562 37.800781 131.0625 38.101562 C 130.761719 38.21875 130.402344 38.339844 130.105469 38.339844 C 129.746094 38.339844 129.386719 38.21875 129.085938 38.039062 L 129.085938 37.261719 L 128.25 37.261719 L 128.25 38.878906 C 128.488281 39 128.785156 39.058594 129.027344 39.121094 C 129.503906 39.179688 129.925781 39.238281 130.402344 39.179688 C 131.0625 39.121094 131.71875 38.820312 132.199219 38.339844 C 132.558594 37.859375 132.917969 37.378906 133.214844 36.839844 L 133.394531 36.480469 L 133.636719 36 L 137.347656 27.660156 L 138.066406 27.660156 L 138.066406 26.878906 Z M 57.855469 46.558594 C 57.914062 47.039062 58.332031 47.398438 58.8125 47.339844 C 59.289062 47.339844 59.589844 47.101562 59.589844 46.679688 C 59.589844 46.261719 59.410156 46.078125 58.632812 45.78125 C 57.855469 45.480469 57.316406 45.238281 57.316406 44.398438 C 57.316406 43.679688 57.855469 43.078125 58.570312 43.078125 L 58.75 43.078125 C 59.589844 43.078125 60.25 43.378906 60.367188 44.28125 L 59.648438 44.398438 C 59.648438 43.980469 59.289062 43.621094 58.871094 43.621094 L 58.8125 43.621094 C 58.453125 43.558594 58.152344 43.800781 58.09375 44.160156 L 58.09375 44.28125 C 58.09375 44.761719 58.453125 44.878906 59.109375 45.121094 C 59.769531 45.359375 60.429688 45.660156 60.429688 46.5 C 60.429688 47.339844 59.710938 47.820312 58.8125 47.820312 C 58.035156 47.941406 57.375 47.460938 57.253906 46.679688 L 57.253906 46.621094 Z M 63.359375 44.699219 C 63.480469 44.941406 63.601562 45.238281 63.660156 45.480469 C 63.71875 45.179688 63.839844 44.941406 63.960938 44.699219 L 64.679688 43.261719 L 65.457031 43.261719 L 64.078125 46.140625 L 64.078125 47.878906 L 63.359375 47.878906 L 63.359375 46.140625 L 61.804688 43.261719 L 62.582031 43.261719 Z M 67.371094 47.820312 L 67.371094 43.199219 L 68.808594 43.199219 C 69.886719 43.078125 70.902344 43.859375 71.023438 44.941406 L 71.023438 45.421875 C 71.144531 46.558594 70.363281 47.578125 69.226562 47.761719 L 67.371094 47.761719 Z M 68.6875 47.21875 C 69.585938 47.21875 70.246094 46.738281 70.246094 45.480469 C 70.246094 44.21875 69.585938 43.800781 68.75 43.800781 L 68.089844 43.800781 L 68.089844 47.21875 Z M 75.691406 45.839844 C 75.992188 46.261719 76.230469 46.738281 76.230469 46.738281 L 76.230469 43.199219 L 76.949219 43.199219 L 76.949219 47.761719 L 76.230469 47.761719 L 74.375 45.121094 L 73.835938 44.21875 C 73.835938 44.21875 73.894531 44.699219 73.894531 45.300781 L 73.894531 47.699219 L 73.179688 47.699219 L 73.179688 43.199219 L 73.894531 43.199219 Z M 82.277344 47.820312 L 79.402344 47.820312 L 79.402344 43.199219 L 82.277344 43.199219 L 82.277344 43.800781 L 80.179688 43.800781 L 80.179688 45.179688 L 82.035156 45.179688 L 82.035156 45.78125 L 80.179688 45.78125 L 80.179688 47.160156 L 82.277344 47.160156 Z M 85.449219 44.699219 C 85.570312 44.941406 85.6875 45.238281 85.75 45.480469 C 85.808594 45.179688 85.929688 44.941406 86.046875 44.699219 L 86.707031 43.261719 L 87.484375 43.261719 L 86.105469 46.140625 L 86.105469 47.878906 L 85.390625 47.878906 L 85.390625 46.140625 L 83.832031 43.261719 L 84.609375 43.261719 Z M 90.058594 45.179688 C 90.355469 45.179688 90.597656 45.421875 90.597656 45.71875 C 90.597656 46.019531 90.355469 46.261719 90.058594 46.261719 C 89.757812 46.261719 89.519531 46.019531 89.519531 45.71875 C 89.578125 45.421875 89.757812 45.238281 90.058594 45.179688 Z M 96.042969 46.558594 L 94.1875 46.558594 L 93.710938 47.820312 L 92.929688 47.820312 L 94.605469 43.199219 L 95.566406 43.199219 L 97.242188 47.820312 L 96.464844 47.820312 Z M 94.367188 45.960938 L 95.863281 45.960938 L 95.503906 44.941406 C 95.386719 44.519531 95.265625 44.160156 95.144531 43.738281 C 95.144531 43.738281 95.027344 44.21875 94.785156 44.941406 Z M 102.507812 43.199219 L 102.507812 46.320312 C 102.507812 47.21875 101.789062 47.941406 100.953125 47.941406 L 100.773438 47.941406 C 99.875 47.941406 98.976562 47.519531 98.976562 46.320312 L 98.976562 43.199219 L 99.695312 43.199219 L 99.695312 46.078125 C 99.695312 46.859375 100.054688 47.28125 100.773438 47.28125 C 101.429688 47.28125 101.789062 46.921875 101.789062 46.078125 L 101.789062 43.199219 Z M 104.964844 46.558594 C 105.023438 47.039062 105.441406 47.398438 105.921875 47.339844 C 106.398438 47.339844 106.699219 47.101562 106.699219 46.679688 C 106.699219 46.261719 106.519531 46.078125 105.742188 45.78125 C 104.964844 45.480469 104.425781 45.238281 104.425781 44.398438 C 104.425781 43.679688 104.964844 43.078125 105.679688 43.078125 L 105.859375 43.078125 C 106.699219 43.078125 107.355469 43.378906 107.476562 44.28125 L 106.757812 44.398438 C 106.757812 43.980469 106.398438 43.621094 105.980469 43.621094 L 105.921875 43.621094 C 105.5625 43.558594 105.261719 43.800781 105.203125 44.160156 L 105.203125 44.28125 C 105.203125 44.761719 105.5625 44.878906 106.21875 45.121094 C 106.878906 45.359375 107.535156 45.660156 107.535156 46.5 C 107.535156 47.339844 106.820312 47.820312 105.921875 47.820312 C 105.144531 47.941406 104.484375 47.460938 104.363281 46.679688 L 104.363281 46.621094 Z M 110.410156 47.820312 L 110.410156 43.800781 L 109.09375 43.800781 L 109.09375 43.199219 L 112.503906 43.199219 L 112.503906 43.800781 L 111.1875 43.800781 L 111.1875 47.820312 Z M 116.933594 47.820312 C 116.816406 47.699219 116.753906 47.519531 116.753906 47.398438 L 116.574219 46.621094 C 116.515625 46.199219 116.15625 45.898438 115.796875 45.960938 L 115.140625 45.960938 L 115.140625 47.820312 L 114.421875 47.820312 L 114.421875 43.199219 L 116.035156 43.199219 C 117.113281 43.199219 117.652344 43.621094 117.652344 44.519531 C 117.714844 45.121094 117.234375 45.601562 116.636719 45.660156 L 116.574219 45.660156 C 116.996094 45.660156 117.292969 45.960938 117.355469 46.378906 L 117.59375 47.28125 C 117.652344 47.460938 117.714844 47.640625 117.832031 47.761719 Z M 115.078125 45.300781 L 115.917969 45.300781 C 116.515625 45.300781 116.753906 45.058594 116.753906 44.519531 C 116.753906 43.980469 116.457031 43.738281 115.917969 43.738281 L 115.078125 43.738281 Z M 122.320312 46.558594 L 120.464844 46.558594 L 120.046875 47.820312 L 119.269531 47.820312 L 120.945312 43.199219 L 121.902344 43.199219 L 123.578125 47.820312 L 122.800781 47.820312 Z M 120.644531 45.960938 L 122.144531 45.960938 L 121.785156 44.941406 C 121.664062 44.519531 121.542969 44.160156 121.425781 43.738281 C 121.304688 44.160156 121.183594 44.519531 121.066406 44.941406 Z M 126.09375 43.199219 L 126.09375 47.21875 L 128.128906 47.21875 L 128.128906 47.820312 L 125.375 47.820312 L 125.375 43.199219 Z M 130.882812 43.199219 L 130.882812 47.761719 L 130.164062 47.761719 L 130.164062 43.199219 Z M 135.851562 46.558594 L 133.996094 46.558594 L 133.574219 47.820312 L 132.796875 47.820312 L 134.472656 43.199219 L 135.429688 43.199219 L 137.105469 47.820312 L 136.328125 47.820312 Z M 134.175781 45.960938 L 135.671875 45.960938 L 135.3125 44.941406 C 135.191406 44.519531 135.070312 44.160156 134.953125 43.738281 C 134.953125 43.738281 134.832031 44.21875 134.59375 44.941406 Z M 134.175781 45.960938 "/>
</g>
</svg>
